<svg xmlns="http://www.w3.org/2000/svg" width="71.424" height="84.436" viewBox="0 0 71.424 84.436">
  <g id="Group_743" data-name="Group 743" transform="translate(140.779 -2610.33)">
    <path id="Path_362" data-name="Path 362" d="M-114.52,2671.564a4.382,4.382,0,0,0,.4-.309,14.785,14.785,0,0,1,5.338-2.836c2.8-.869,5.6-1.717,8.386-2.619a1.12,1.12,0,0,1,1.324.339q3.986,4.031,8.019,8.019c1.524,1.517,2.992,1.558,4.607.146.867-.759,1.731-1.515,2.634-2.308.82.712,1.585,1.369,2.344,2.036,2.034,1.793,3.285,1.75,5.224-.187,2.575-2.571,5.145-5.147,7.737-7.7a1.671,1.671,0,0,1,.682-.416.571.571,0,0,1,.067-.011c1.206.375,2.407.785,3.611,1.157l.295.091a17.91,17.91,0,0,1,2.8,1.121,13.916,13.916,0,0,1,2.8,1.852,4.339,4.339,0,0,0,.42.326,1.322,1.322,0,0,0,1.9-.187,1.224,1.224,0,0,0-.273-1.869c-.551-.369-1.1-.765-1.644-1.151a14.552,14.552,0,0,0-3.475-1.956q-2.405-.842-4.834-1.621l0,0-.366-.113q-.62-.2-1.24-.4v.014q-2.3-.713-4.6-1.422a3.274,3.274,0,0,0-1.479-.24c-.638.123-1.009-.163-1.077-.627a10.944,10.944,0,0,1-.134-3.094c.059-.394.877-.68,1.352-1.013.184-.129.379-.244.564-.373a18.956,18.956,0,0,0,7.3-9.791c.091-.273.409-.642.657-.67,3.064-.358,4.38-1.744,4.325-4.808-.03-1.708-.29-3.412-.345-5.12-.078-2.479-.008-4.965-.1-7.445a17.543,17.543,0,0,0-1.685-6.588,1.236,1.236,0,0,0-1.6-.738,1.26,1.26,0,0,0-.733,1.668c.129.43.32.841.487,1.261,1.367,3.4,1.06,6.962,1.06,10.585l-1.136-.151c-.191-1.076-.324-2.055-.543-3.013-.292-1.284-1.077-1.659-2.257-1.06a18.262,18.262,0,0,1-12.6,1.31c-3.155-.7-6.239-1.723-9.356-2.6-3.393-.954-6.807-1.562-10.342-.791a1.934,1.934,0,0,0-1.7,1.522,29.965,29.965,0,0,0-.807,3.791c-.091.958-.528,1.009-1.43.911.11-2.431.061-4.862.356-7.25.848-6.87,6.779-13.082,13.631-13.987a74.848,74.848,0,0,1,10.465-.292,14.377,14.377,0,0,1,6.239,1.674,18.9,18.9,0,0,1,4.76,3.473,1.244,1.244,0,0,0,1.882.072,1.249,1.249,0,0,0-.074-1.82,17.437,17.437,0,0,0-10.626-5.629,61.887,61.887,0,0,0-11.136-.259,19.145,19.145,0,0,0-17.566,16,76.262,76.262,0,0,0-.375,9.278c-.013.394-.019.788-.045,1.18-.1,1.539-.314,3.077-.3,4.616.017,2,1.1,3.73,2.833,3.906,1.789.18,2.215,1.178,2.772,2.549a18.233,18.233,0,0,0,8.032,9.072c.244.142.581.4.591.615a15.064,15.064,0,0,1-.078,2.7c-.078.579-.337,1.142-1.185.922a1.939,1.939,0,0,0-.994.114c-5.482,1.712-11,3.333-16.419,5.224a22.925,22.925,0,0,0-4.878,2.961,1.171,1.171,0,0,0-.261,1.784A1.263,1.263,0,0,0-114.52,2671.564Zm49.576-34.52c.892.059,1.43.473,1.477,1.214a25.976,25.976,0,0,1-.021,3.7c-.061.8-.672,1.172-1.456,1.2Zm-37.719,6.035a1.21,1.21,0,0,1-1.464-1.138,26.918,26.918,0,0,1-.017-3.7c.042-.72.576-1.115,1.481-1.216Zm18.587,25.367c-2.327-1.823-4.635-3.67-6.983-5.542a6.038,6.038,0,0,0,1.117-4.374,19.119,19.119,0,0,0,12.259,0,6.143,6.143,0,0,0,1.123,4.376c-2.348,1.869-4.635,3.7-6.938,5.508A.612.612,0,0,1-84.076,2668.447Zm9.087-3.586a2.422,2.422,0,0,1,2.99-.553,9.573,9.573,0,0,0,1.314.439c-.744.727-1.409,1.369-2.066,2.02-1.818,1.812-3.656,3.6-5.434,5.453-.572.6-.947.581-1.5.021-.651-.657-1.38-1.238-2.126-1.9C-79.5,2668.5-77.185,2666.747-74.989,2664.861Zm-24.883-21.6a33.839,33.839,0,0,1,.292-11.774,1.046,1.046,0,0,1,1.066-.935,17.063,17.063,0,0,1,6.533.545c3.179.861,6.317,1.871,9.5,2.71a23.071,23.071,0,0,0,14.377-.458c.1-.038.212-.053.377-.1.367,5.349.884,10.617-1.89,15.5a16.438,16.438,0,0,1-16.767,8.051A16.125,16.125,0,0,1-99.873,2643.258Zm5.5,20.7a.989.989,0,0,1,.74.163c2.594,2.037,5.171,4.094,7.849,6.224-.894.78-1.742,1.543-2.626,2.259a.66.66,0,0,1-.638-.066c-2.6-2.573-5.181-5.169-7.828-7.822C-95.984,2664.439-95.189,2664.166-94.377,2663.96Z" transform="translate(-19.033)" fill="#eb4e4a"/>
    <path id="Path_363" data-name="Path 363" d="M-69.392,2914.483a16.294,16.294,0,0,0-1.579-6.591,1.329,1.329,0,0,0-1.765-.886,1.278,1.278,0,0,0-.7,1.833,19.305,19.305,0,0,1,1.422,8.845c-.051,2.662-.011,5.323-.011,8.057h-7.3v-.943q0-5.238,0-10.477a3.939,3.939,0,0,0-.055-.882,1.243,1.243,0,0,0-1.257-1.053,1.251,1.251,0,0,0-1.31,1.1,5.291,5.291,0,0,0-.04.973q0,5.15,0,10.3l.012,1.117-4.068.027c-.021-.023-.011-.012,0,0h-42.692v-.96q0-4.908,0-9.814a4.822,4.822,0,0,0-.038-.928,1.192,1.192,0,0,0-1.248-1.047,1.181,1.181,0,0,0-1.2,1,3.832,3.832,0,0,0-.053.841q0,4.994,0,9.986v.9h-6.962c0-2.607.038-5.144-.011-7.678a18.415,18.415,0,0,1,1.354-8.432,1.217,1.217,0,0,0-.661-1.746,1.266,1.266,0,0,0-1.683.844,15.543,15.543,0,0,0-1.507,6.281c-.042,3.526-.038,7.051-.023,10.577a2.664,2.664,0,0,0,2.628,2.753c.309.023.621.011.93.011q25.17,0,50.343-.011v0h2.443c.146,0,.292,0,.437.011v-.011H-73.1c.324,0,.653.011.977-.013a2.97,2.97,0,0,0,2.034-.922,2.874,2.874,0,0,0,.721-1.967C-69.35,2921.881-69.346,2918.181-69.392,2914.483Z" transform="translate(0 -233.726)" fill="#eb4e4a"/>
  </g>
</svg>
