<svg xmlns="http://www.w3.org/2000/svg" width="84.451" height="84.436" viewBox="0 0 84.451 84.436">
  <g id="Group_742" data-name="Group 742" transform="translate(-12989 -1714)">
    <g id="Group_741" data-name="Group 741" transform="translate(12989 1714)">
      <g id="Group_740" data-name="Group 740" transform="translate(0 0)">
        <path id="Path_351" data-name="Path 351" d="M48.022,2649.6a8.351,8.351,0,0,1-1.006,1.667,3.038,3.038,0,0,1-3.414.757,3.173,3.173,0,0,1-2.156-2.856c-.041-.409-.019-.824-.019-1.236q0-8.617,0-17.234c0-4.387-2.768-7.15-7.154-7.156-1.206,0-2.411,0-3.735,0,0,1.161.041,2.279-.008,3.392a3.276,3.276,0,0,1-5.032,2.687,3.185,3.185,0,0,1-1.539-2.757c-.026-1.068-.006-2.137-.006-3.264H8.943c0,.849,0,1.692,0,2.536,0,2.473-1.239,3.985-3.276,4-2.066.014-3.319-1.509-3.32-4.036,0-.819,0-1.639,0-2.505H-12.5c0,1.058.02,2.144,0,3.229a3.283,3.283,0,0,1-2.242,3.137,3.278,3.278,0,0,1-4.334-3.062c-.04-1.09-.007-2.183-.007-3.439a42.156,42.156,0,0,0-5.646.323A6.409,6.409,0,0,0-29.8,2630c-.012.219-.01.439-.01.66q0,25.232,0,50.465c0,2.857,1.111,5.111,3.739,6.345a8.18,8.18,0,0,0,3.337.7c8.107.057,16.214.036,24.32.024a3.654,3.654,0,0,1,2.781,1,3.285,3.285,0,0,1-.948,5.271c-.245.117-.5.219-.744.328H-24.695a1.031,1.031,0,0,0-.286-.136A13.371,13.371,0,0,1-36.429,2681.1c.084-16.815.022-33.631.038-50.447a15.664,15.664,0,0,1,.276-3.109,13.143,13.143,0,0,1,12.77-10.584c1.392-.026,2.786,0,4.261,0,0-1.177-.034-2.27.007-3.36a3.278,3.278,0,0,1,4.335-3.059,3.285,3.285,0,0,1,2.241,3.137c.024,1.084,0,2.17,0,3.232H2.347c0-1.028-.008-2.011,0-2.994a3.306,3.306,0,1,1,6.592.022c.008.981,0,1.963,0,2.967H23.948c0-1.007,0-1.964,0-2.92a3.31,3.31,0,1,1,6.593-.032c.007.98,0,1.959,0,3.015,1.626,0,3.162-.071,4.69.013a12.818,12.818,0,0,1,11.413,7.416,27.7,27.7,0,0,1,1.375,4.27Z" transform="translate(36.429 -2610.358)" fill="#eb4e4a"/>
        <path id="Path_352" data-name="Path 352" d="M197.572,2865.668a55.365,55.365,0,0,1-5.711-1.464,19.82,19.82,0,0,1-12.319-21.547c1.41-7.908,5.926-13.377,13.525-15.853,7.783-2.536,14.752-.641,20.544,5.155a18.994,18.994,0,0,1,5.415,11.471,5.831,5.831,0,0,0,.147.632v3.3c-.055.265-.122.528-.164.8-1.231,7.885-5.534,13.354-12.968,16.248a38.9,38.9,0,0,1-5.171,1.263Zm1.609-6.6a13.356,13.356,0,1,0-13.314-13.417A13.4,13.4,0,0,0,199.181,2859.068Z" transform="translate(-134.722 -2781.232)" fill="#eb4e4a"/>
        <path id="Path_353" data-name="Path 353" d="M54.151,2765.382a3.292,3.292,0,1,1-3.321-3.284A3.309,3.309,0,0,1,54.151,2765.382Z" transform="translate(-30.221 -2730.762)" fill="#eb4e4a"/>
        <path id="Path_354" data-name="Path 354" d="M123.616,2765.422a3.292,3.292,0,1,1-3.282-3.323A3.311,3.311,0,0,1,123.616,2765.422Z" transform="translate(-85.34 -2730.764)" fill="#eb4e4a"/>
        <path id="Path_355" data-name="Path 355" d="M189.805,2762.1a3.293,3.293,0,1,1-3.3,3.3A3.309,3.309,0,0,1,189.805,2762.1Z" transform="translate(-140.464 -2730.764)" fill="#eb4e4a"/>
        <path id="Path_356" data-name="Path 356" d="M262.551,2765.357a3.292,3.292,0,1,1-3.345-3.26A3.309,3.309,0,0,1,262.551,2765.357Z" transform="translate(-195.584 -2730.761)" fill="#eb4e4a"/>
        <path id="Path_357" data-name="Path 357" d="M54.151,2834.87a3.292,3.292,0,1,1-3.314-3.29A3.31,3.31,0,0,1,54.151,2834.87Z" transform="translate(-30.221 -2785.895)" fill="#eb4e4a"/>
        <path id="Path_358" data-name="Path 358" d="M123.616,2834.906a3.292,3.292,0,1,1-3.279-3.326A3.311,3.311,0,0,1,123.616,2834.906Z" transform="translate(-85.341 -2785.895)" fill="#eb4e4a"/>
        <path id="Path_359" data-name="Path 359" d="M54.149,2904.375a3.292,3.292,0,1,1-3.291-3.315A3.31,3.31,0,0,1,54.149,2904.375Z" transform="translate(-30.22 -2841.027)" fill="#eb4e4a"/>
        <path id="Path_360" data-name="Path 360" d="M120.312,2907.644a3.293,3.293,0,1,1,3.306-3.3A3.31,3.31,0,0,1,120.312,2907.644Z" transform="translate(-85.342 -2841.026)" fill="#eb4e4a"/>
        <path id="Path_361" data-name="Path 361" d="M266.446,2880.675c.645,0,1.166-.03,1.683.005a3.29,3.29,0,0,1,3.1,3.326,3.247,3.247,0,0,1-3.106,3.228c-1.726.064-3.458.065-5.184,0a3.164,3.164,0,0,1-3.055-3.092q-.091-3.538,0-7.079a3.242,3.242,0,0,1,3.266-3.153,3.278,3.278,0,0,1,3.293,3.218C266.479,2878.271,266.446,2879.419,266.446,2880.675Z" transform="translate(-198.655 -2819.482)" fill="#eb4e4a"/>
      </g>
    </g>
  </g>
</svg>
