<svg xmlns="http://www.w3.org/2000/svg" width="133.025" height="124.16" viewBox="0 0 133.025 124.16">
  <g id="Group_733" data-name="Group 733" transform="translate(132.714 -2290.711)">
    <path id="Path_330" data-name="Path 330" d="M-132.714,2407.065c.826-2.4,2.17-4.346,4.8-4.976a28.2,28.2,0,0,1,3.328-.393v-95.563c0-4.027.791-5.184,4.512-6.748a1.18,1.18,0,0,0,.532-.85c.077-.771.013-1.556.035-2.335a5.444,5.444,0,0,1,5.936-5.472c7.855.586,15.705,1.221,23.558,1.837,8.585.674,17.169,1.373,25.757,2.006,2.343.173,4.453.786,5.462,3.052a13.377,13.377,0,0,1,.668,3.9,21.184,21.184,0,0,1,.017,2.4c4.049,1.366,5.058,2.79,5.058,7.009q0,16.1,0,32.211v1.823h1.639q18.638,0,37.277,0c4.173,0,6.32,2.138,6.329,6.3.006,2.9,0,5.8,0,8.7a2.125,2.125,0,0,1-1.435,2.349,1.914,1.914,0,0,1-2.45-2.046c-.035-2.988-.008-5.975-.015-8.963,0-2-.447-2.449-2.429-2.449q-18.769,0-37.537,0h-1.268v52.9h41.235v-1.51q0-14.742,0-29.484a10.269,10.269,0,0,1,.047-1.426,1.736,1.736,0,0,1,1.752-1.6,1.733,1.733,0,0,1,1.947,1.36,6.741,6.741,0,0,1,.144,1.67q.011,14.677.006,29.354v1.721c.613,0,1.117-.01,1.62,0a6.469,6.469,0,0,1,6.5,6.4,6.533,6.533,0,0,1-6.346,6.58c-.518.025-1.039.01-1.559.01q-58.448,0-116.9.043c-4.031.008-6.862-1.288-8.223-5.207Zm75.759-5.306v-17.288q0-36.955,0-73.912c0-2.2-.333-2.55-2.522-2.709-1.813-.132-3.627-.254-5.439-.4q-12.556-.986-25.111-1.981c-9.32-.731-18.642-1.442-27.961-2.188-2.181-.174-2.7.253-2.7,2.481q0,47.282,0,94.565v1.424h33.731c0-1.847,0-3.614,0-5.381.006-1.743.688-2.629,1.992-2.611,1.27.017,1.9.848,1.9,2.543.006,1.8,0,3.607,0,5.465H-66.4v-27.093H-83.065v1.481c0,3.377.016,6.754-.008,10.132-.011,1.6-1.156,2.534-2.505,2.093a2.046,2.046,0,0,1-1.386-2.239c.007-3.854,0-7.707,0-11.561.006-2.662,1.229-3.881,3.892-3.883q8.183-.008,16.367,0c3.218,0,4.3,1.07,4.306,4.257q0,12.6,0,25.2v1.6Zm-9.228,3.975H-125c-.476,0-.955-.018-1.427.024a2.555,2.555,0,0,0-2.371,2.343,2.506,2.506,0,0,0,1.837,2.654,6.873,6.873,0,0,0,1.795.168q58.95.011,117.9.006c2.42,0,3.707-.934,3.677-2.662-.03-1.694-1.235-2.534-3.64-2.534Zm4.171-101.977c0-1.177.011-2.163,0-3.148-.019-1.454-.451-1.965-1.894-2.083-4.7-.384-9.4-.735-14.1-1.1q-10.8-.839-21.6-1.683c-4.656-.366-9.311-.748-13.967-1.116-1.019-.081-1.884.218-1.993,1.353s-.024,2.314-.024,3.58Z" fill="#eb4e4a"/>
    <path id="Path_331" data-name="Path 331" d="M168.368,2537.465c1.34,0,2.682-.042,4.019.01a3.375,3.375,0,0,1,3.4,3.374c.07,2.2.065,4.409,0,6.612a3.247,3.247,0,0,1-3.129,3.357c-2.93.135-5.876.133-8.806-.008a3.307,3.307,0,0,1-3.12-3.391c-.073-2.159-.077-4.324,0-6.483a3.493,3.493,0,0,1,3.614-3.472c1.339-.036,2.68-.006,4.02-.006Zm-3.689,3.951v5.525h7.138v-5.525Z" transform="translate(-191.556 -161.093)" fill="#eb4e4a"/>
    <path id="Path_332" data-name="Path 332" d="M116.042,2550.91c-1.21,0-2.421.031-3.631-.005-2.48-.074-3.867-1.421-3.931-3.872-.051-1.944-.057-3.891,0-5.834a3.554,3.554,0,0,1,3.88-3.75q3.7-.036,7.391,0a3.5,3.5,0,0,1,3.847,3.637c.082,2.028.078,4.064,0,6.093a3.569,3.569,0,0,1-3.8,3.722C118.551,2550.95,117.3,2550.91,116.042,2550.91Zm3.686-9.469h-7.254v5.569c2.26,0,4.414.022,6.566-.031a.973.973,0,0,0,.657-.686C119.758,2544.706,119.728,2543.113,119.728,2541.442Z" transform="translate(-157.449 -161.082)" fill="#eb4e4a"/>
    <path id="Path_333" data-name="Path 333" d="M116.017,2499.026c-1.3,0-2.594.038-3.889-.01a3.469,3.469,0,0,1-3.63-3.458c-.106-2.155-.1-4.323,0-6.479a3.437,3.437,0,0,1,3.609-3.472q3.952-.087,7.907,0a3.382,3.382,0,0,1,3.543,3.384,64.42,64.42,0,0,1,0,6.606,3.424,3.424,0,0,1-3.652,3.42C118.611,2499.065,117.313,2499.028,116.017,2499.026Zm-3.66-3.957h7.273v-5.581c-2.243,0-4.4-.022-6.556.03a.974.974,0,0,0-.685.659C112.327,2491.767,112.357,2493.361,112.357,2495.07Z" transform="translate(-157.435 -127.218)" fill="#eb4e4a"/>
    <path id="Path_334" data-name="Path 334" d="M168.287,2499.01c-1.383,0-2.769.058-4.148-.014a3.439,3.439,0,0,1-3.4-3.405c-.081-2.2-.085-4.41.005-6.61a3.4,3.4,0,0,1,3.445-3.359q4.081-.109,8.167,0a3.368,3.368,0,0,1,3.443,3.472q.087,3.238,0,6.481a3.366,3.366,0,0,1-3.357,3.42C171.055,2499.068,169.669,2499.009,168.287,2499.01Zm-3.619-3.952h7.175v-5.49h-7.175Z" transform="translate(-191.551 -127.22)" fill="#eb4e4a"/>
    <path id="Path_335" data-name="Path 335" d="M-73.125,2533.908c-2.814,0-5.628.013-8.443,0a3.707,3.707,0,0,1-4.023-3.927c-.026-1.645-.028-3.291,0-4.936a3.714,3.714,0,0,1,3.945-3.892q8.507-.04,17.015,0a3.757,3.757,0,0,1,3.969,4.012c.02,1.559.016,3.117,0,4.676a3.735,3.735,0,0,1-4.023,4.066C-67.5,2533.922-70.311,2533.908-73.125,2533.908Zm-8.5-3.987h16.981V2525.1H-81.629Z" transform="translate(-30.754 -150.439)" fill="#eb4e4a"/>
    <path id="Path_336" data-name="Path 336" d="M34.993,2363.05c1.3,0,2.6-.029,3.895.007a3.079,3.079,0,0,1,3.268,2.87,57.092,57.092,0,0,1-.006,7,3.086,3.086,0,0,1-3.16,2.864q-4.023.1-8.049,0a3.233,3.233,0,0,1-3.27-3.212,62.146,62.146,0,0,1,0-6.358,3.235,3.235,0,0,1,3.424-3.173c.086,0,.173,0,.26,0h3.635Zm3.285,8.821v-4.853H31.611v4.853Z" transform="translate(-104.663 -47.223)" fill="#eb4e4a"/>
    <path id="Path_337" data-name="Path 337" d="M34.86,2426.147c-1.255,0-2.511.036-3.765-.01a3.226,3.226,0,0,1-3.422-3.181,61.363,61.363,0,0,1,0-6.358,3.262,3.262,0,0,1,3.4-3.223c2.6-.054,5.194-.059,7.79,0a3.249,3.249,0,0,1,3.358,3.262c.1,2.072.107,4.156.006,6.228a3.25,3.25,0,0,1-3.471,3.27C37.458,2426.184,36.158,2426.148,34.86,2426.147Zm3.446-8.807H31.611v4.822h6.695Z" transform="translate(-104.662 -80.06)" fill="#eb4e4a"/>
    <path id="Path_338" data-name="Path 338" d="M34.865,2476.746c-1.212,0-2.424.026-3.635-.006a3.371,3.371,0,0,1-3.587-3.464c-.076-1.944-.072-3.9-.005-5.841a3.3,3.3,0,0,1,3.556-3.461q3.764-.057,7.53,0a3.256,3.256,0,0,1,3.512,3.359c.086,1.987.085,3.983,0,5.97a3.358,3.358,0,0,1-3.607,3.437C37.376,2476.77,36.12,2476.746,34.865,2476.746Zm-3.283-3.984h6.69v-4.81h-6.69Z" transform="translate(-104.66 -113.103)" fill="#eb4e4a"/>
    <path id="Path_339" data-name="Path 339" d="M-78.379,2426.12c-1.341,0-2.686.056-4.023-.015a3.223,3.223,0,0,1-3.188-3.27c-.052-2.032-.049-4.069,0-6.1a3.266,3.266,0,0,1,3.265-3.352q4.022-.116,8.049,0a3.235,3.235,0,0,1,3.242,3.362c.043,2.033.047,4.069,0,6.1a3.19,3.19,0,0,1-3.186,3.261C-75.606,2426.178-76.994,2426.12-78.379,2426.12Zm3.387-8.763h-6.613v4.825h6.613Z" transform="translate(-30.742 -80.053)" fill="#eb4e4a"/>
    <path id="Path_340" data-name="Path 340" d="M-21.622,2426.135c-1.3,0-2.6.043-3.895-.01a3.238,3.238,0,0,1-3.363-3.36q-.075-2.985,0-5.972a3.259,3.259,0,0,1,3.322-3.418q3.958-.1,7.919,0a3.319,3.319,0,0,1,3.33,3.442q.074,2.919,0,5.842a3.307,3.307,0,0,1-3.42,3.465C-19.024,2426.178-20.324,2426.135-21.622,2426.135Zm3.362-8.775h-6.664v4.812h6.664Z" transform="translate(-67.769 -80.053)" fill="#eb4e4a"/>
    <path id="Path_341" data-name="Path 341" d="M-21.562,2463.987c1.3,0,2.6-.039,3.895.009a3.272,3.272,0,0,1,3.357,3.386c.053,1.989.056,3.982,0,5.971a3.321,3.321,0,0,1-3.386,3.388q-3.892.1-7.789,0a3.284,3.284,0,0,1-3.4-3.485q-.063-2.92,0-5.842a3.248,3.248,0,0,1,3.427-3.428c1.3-.04,2.6-.007,3.895-.007Zm-3.377,8.793h6.662v-4.816h-6.662Z" transform="translate(-67.769 -113.12)" fill="#eb4e4a"/>
    <path id="Path_342" data-name="Path 342" d="M-78.319,2375.789c-1.3,0-2.6.038-3.894-.01a3.321,3.321,0,0,1-3.377-3.381c-.046-1.99-.042-3.982,0-5.972a3.251,3.251,0,0,1,3.341-3.387q3.959-.063,7.92,0a3.2,3.2,0,0,1,3.3,3.283q.073,3.049,0,6.1a3.291,3.291,0,0,1-3.389,3.356C-75.721,2375.824-77.021,2375.789-78.319,2375.789Zm-3.324-3.962h6.658v-4.853h-6.658Z" transform="translate(-30.745 -47.202)" fill="#eb4e4a"/>
    <path id="Path_343" data-name="Path 343" d="M-21.578,2363.045c1.3,0,2.6-.027,3.895.008a3.248,3.248,0,0,1,3.361,3.24c.076,2.074.075,4.156,0,6.231a3.285,3.285,0,0,1-3.358,3.269c-2.639.053-5.281.059-7.92,0a3.234,3.234,0,0,1-3.274-3.325q-.082-3.049,0-6.1a3.222,3.222,0,0,1,3.4-3.312C-24.175,2363.018-22.876,2363.044-21.578,2363.045Zm-3.364,8.767h6.648v-4.784h-6.648Z" transform="translate(-67.769 -47.22)" fill="#eb4e4a"/>
    <path id="Path_344" data-name="Path 344" d="M-78.216,2463.986c1.255,0,2.511-.033,3.765.006a3.262,3.262,0,0,1,3.428,3.432q.054,2.921,0,5.842a3.3,3.3,0,0,1-3.4,3.481c-2.595.059-5.194.063-7.789,0a3.328,3.328,0,0,1-3.377-3.519c-.031-1.947-.037-3.9,0-5.842A3.27,3.27,0,0,1-82.24,2464C-80.9,2463.948-79.557,2463.987-78.216,2463.986Zm3.208,8.826v-4.833h-6.6v4.833Z" transform="translate(-30.749 -113.122)" fill="#eb4e4a"/>
  </g>
</svg>
