<svg xmlns="http://www.w3.org/2000/svg" width="84.46" height="84.436" viewBox="0 0 84.46 84.436">
  <g id="Group_745" data-name="Group 745" transform="translate(8.997 -2731.714)">
    <path id="Path_364" data-name="Path 364" d="M75.463,2776.533c-.207,1.519-.333,3.054-.634,4.554C71.536,2797.5,62,2808.7,46.171,2814.015c-21.539,7.238-45.205-4.548-52.643-26.03-4.581-13.232-2.884-25.836,4.734-37.613.615-.951,1.313-1.248,2.127-.959a1.579,1.579,0,0,1,1.061,1.75,2.868,2.868,0,0,1-.46,1.036A38.172,38.172,0,0,0-5.4,2769.728a38.905,38.905,0,0,0,28.85,41.748c12.932,3.266,24.677.553,34.938-7.966a37.63,37.63,0,0,0,13.02-22.034,38.912,38.912,0,0,0-29.6-45.5,38.37,38.37,0,0,0-30.147,5.583,3.784,3.784,0,0,1-.942.493,1.583,1.583,0,0,1-1.86-.86,1.531,1.531,0,0,1,.588-2.088c1.871-1.141,3.735-2.315,5.7-3.281A40,40,0,0,1,30,2731.85a4.525,4.525,0,0,0,.632-.136H35.91c.212.046.422.1.635.136,2.165.336,4.362.536,6.492,1.023a42.108,42.108,0,0,1,31.785,33.752c.257,1.538.429,3.09.64,4.635Z" transform="translate(0)" fill="#eb4e4a"/>
    <path id="Path_365" data-name="Path 365" d="M96.706,2803.088A33.949,33.949,0,1,1,62.9,2769.146,34,34,0,0,1,96.706,2803.088Zm-33.915-12.207a132.741,132.741,0,0,0-19.12,1.345,1.29,1.29,0,0,0-.823.619,22.415,22.415,0,0,0-2.235,13.736,1.216,1.216,0,0,0,.83,1.057,26.442,26.442,0,0,1,14.728,16.277,1.17,1.17,0,0,0,.933.876,23.178,23.178,0,0,0,11.245.02,1.371,1.371,0,0,0,1.029-.986,41.685,41.685,0,0,1,2.325-5.159,26.381,26.381,0,0,1,12.447-11.092,1.269,1.269,0,0,0,.677-.768,22.006,22.006,0,0,0-2.168-13.973,1.384,1.384,0,0,0-.911-.623A132.4,132.4,0,0,0,62.791,2790.881Zm-27.8-.577a143.66,143.66,0,0,1,55.541-.006,30.522,30.522,0,0,0-55.541.006Zm36.4,42.2a30.625,30.625,0,0,0,15.862-11.026,29.647,29.647,0,0,0,5.594-12.636A23.279,23.279,0,0,0,71.388,2832.5ZM32.65,2808.862a30.477,30.477,0,0,0,9.566,16.941,29.883,29.883,0,0,0,11.922,6.68C54.465,2819.48,43.83,2809.389,32.65,2808.862Zm6.5-16c-1.739.346-3.308.7-4.892.954a1.044,1.044,0,0,0-.993.868,31.742,31.742,0,0,0-1.13,9.915c.012.263.065.523.1.759l4.991.738A26.65,26.65,0,0,1,39.149,2792.862Zm47.454.053c.534,2.208,1.212,4.33,1.525,6.5.317,2.2.272,4.454.383,6.647l4.724-.7c.033-.061.078-.106.082-.155a29.068,29.068,0,0,0-1.21-10.87.861.861,0,0,0-.57-.455C89.881,2793.537,88.216,2793.228,86.6,2792.916Zm-29.06,40.358a29.455,29.455,0,0,0,10.43,0l.242-4.919c-1.85.146-3.673.4-5.5.4s-3.626-.262-5.422-.407C57.377,2829.989,57.459,2831.6,57.543,2833.273Z" transform="translate(-29.484 -29.193)" fill="#eb4e4a"/>
    <path id="Path_366" data-name="Path 366" d="M47,2785.663a1.642,1.642,0,1,1-1.68,1.57A1.684,1.684,0,0,1,47,2785.663Z" transform="translate(-42.361 -42.073)" fill="#eb4e4a"/>
    <path id="Path_367" data-name="Path 367" d="M162.092,2894.148a8.237,8.237,0,1,1-8.24-8.211A8.26,8.26,0,0,1,162.092,2894.148Zm-8.31,4.965a4.941,4.941,0,1,0-4.869-4.993A4.961,4.961,0,0,0,153.782,2899.114Z" transform="translate(-120.581 -120.276)" fill="#eb4e4a"/>
  </g>
</svg>
