<svg xmlns="http://www.w3.org/2000/svg" width="101.512" height="127.749" viewBox="0 0 101.512 127.749">
  <path id="Path_328" data-name="Path 328" d="M-79.317,2440.042c-.31-.106-.621-.212-.931-.32a7.731,7.731,0,0,1-5.619-6.674,31.363,31.363,0,0,1-.1-4.621,1.807,1.807,0,0,1,1.96-1.952c1.082.047,1.719.744,1.758,2.013.035,1.126-.014,2.253.019,3.378a4.238,4.238,0,0,0,4.538,4.417c2.581.015,5.163,0,7.936,0,0-1.381,0-2.7,0-4.009,0-1.251-.021-2.5.007-3.753.03-1.348.784-2.2,1.886-2.206s1.846.847,1.856,2.2c.017,2.535,0,5.071,0,7.686H-4.523c0-2.119,0-4.193,0-6.267,0-.459-.007-.918,0-1.376.029-1.378.714-2.219,1.816-2.243,1.144-.025,1.914.856,1.93,2.289.023,2.043.006,4.087.007,6.13v1.548H4c1.085,0,2.169.01,3.254,0,2.547-.032,4.4-1.616,4.426-4.125.057-6.5.188-13.02-.12-19.512A14.881,14.881,0,0,0,.7,2399.237c-2.031-.621-4.063-1.243-6.12-1.764a2.5,2.5,0,0,0-1.715.215q-13.087,7.708-26.111,15.521a3.4,3.4,0,0,1-4.007,0c-8.6-5.188-17.254-10.281-25.875-15.432a2.421,2.421,0,0,0-2.213-.3c-1.854.622-3.753,1.107-5.621,1.688a15.391,15.391,0,0,0-11.275,15.086c-.024,1.751.022,3.5-.027,5.254a1.8,1.8,0,0,1-1.767,1.885,1.77,1.77,0,0,1-1.914-1.742c-.059-3.993-.4-8.027,1-11.891a18.986,18.986,0,0,1,13.055-12.249c1.515-.456,3.076-.782,4.551-1.342a26.438,26.438,0,0,0,4.712-2.182c4.483-2.813,8.884-5.757,13.315-8.653a2.266,2.266,0,0,0,.219-3.628,21.756,21.756,0,0,1-7.779-13.845,1.547,1.547,0,0,0-.807-1.033,5.035,5.035,0,0,1-3.481-5.1c-.007-4.587.018-9.175-.039-13.763a6.981,6.981,0,0,0-.629-1.9,11.7,11.7,0,0,1-.86-2.795c-.13-2.161-.015-4.336-.071-6.5-.009-.341-.347-.918-.612-.969-2.819-.537-5.655-.989-8.591-1.483v8.611c1.137.753,2.42,1.218,3.057,2.134a5.921,5.921,0,0,1,.8,3.4c-.183,5.108,1.24,9.988,1.934,14.969.155,1.113.4,2.213.571,3.325a4.213,4.213,0,0,1-4.381,5.2q-3.941.034-7.884,0c-3.089-.027-4.9-2.259-4.367-5.312.794-4.555,1.638-9.1,2.321-13.675a35.553,35.553,0,0,0,.109-5c.018-2.779,1.168-4.168,3.99-4.651,0-3.221.011-6.465-.019-9.71a1.614,1.614,0,0,0-.434-.839c-2.034-2.55-1.137-5.644,1.993-6.645,11.5-3.679,23.041-7.235,34.5-11.05a13.453,13.453,0,0,1,9.047-.007c11.336,3.776,22.759,7.288,34.138,10.934a6.082,6.082,0,0,1,2.26,1.251,3.629,3.629,0,0,1,.944,3.914,3.732,3.732,0,0,1-3.093,2.753c-3.362.6-6.733,1.165-10.1,1.747-.366.063-.728.147-1.215.246,0,2.282-.019,4.525.007,6.768a4.813,4.813,0,0,1-1.256,3.793,1.953,1.953,0,0,0-.312,1.263c-.019,4.5-.047,9.009.008,13.513.033,2.728-1,4.655-3.646,5.624a1.287,1.287,0,0,0-.655.883,21.762,21.762,0,0,1-8,14.121,2.312,2.312,0,0,0,.245,3.323c5.055,3.311,10.079,6.674,15.205,9.872a17.323,17.323,0,0,0,4.233,1.433c3.432,1.025,6.915,1.9,9.818,4.181a19.13,19.13,0,0,1,7.615,15.721q.042,8.571,0,17.142c-.016,4.322-2.175,7.111-6.354,8.3a1.5,1.5,0,0,0-.32.183Zm30.085-94.554c0,1.272.032,2.549-.006,3.824a5.944,5.944,0,0,1-5.924,5.876c-.7.02-1.4,0-2.208,0,0,1.738-.085,3.357.058,4.958.036.408.74.962,1.232,1.09,1.916.5,2.64,1.22,2.818,3.122a18.139,18.139,0,0,0,18.019,16.569,18.145,18.145,0,0,0,17.978-16.48c.2-2.026.861-2.693,2.86-3.218.484-.127,1.165-.7,1.2-1.119.142-1.6.057-3.21.057-4.917-.68,0-1.215,0-1.75,0-3.922-.028-6.37-2.482-6.4-6.418-.008-1.073,0-2.148,0-3.29Zm-9.672-3.909h47.291v-7.6c-1.164-.164-2.282-.269-3.377-.49a1.753,1.753,0,0,1-1.526-2.074,1.779,1.779,0,0,1,2.044-1.567c.665.031,1.324.16,1.988.214a15.663,15.663,0,0,0,3.342.2c3.341-.462,6.661-1.077,9.986-1.648.727-.125,1.443-.313,2.164-.471a1.846,1.846,0,0,0-.932-.631q-18.267-5.812-36.546-11.591a3.165,3.165,0,0,0-1.787.056q-17.328,5.462-34.637,10.985c-.889.282-1.767.6-2.955,1a8.128,8.128,0,0,0,1.085.4c2.628.45,5.256.9,7.888,1.319a19.228,19.228,0,0,0,4.557.614c4.231-.37,8.441-.988,12.656-1.538,6.618-.863,13.228-1.811,19.912-.607,1.433.259,2.9.343,4.34.545a1.944,1.944,0,0,1,1.859,2.1,1.923,1.923,0,0,1-2.27,1.626c-.415-.022-.826-.11-1.242-.142-3.983-.309-7.967-.844-11.95-.847a82.4,82.4,0,0,0-9.69,1c-4.05.483-8.094,1.009-12.2,1.523Zm32.926,41.026a22.655,22.655,0,0,1-9.247,2.071,22.694,22.694,0,0,1-9.313-2.064,31.956,31.956,0,0,0,1.107,10.134c.063.237.542.461.859.517a41.278,41.278,0,0,0,14.665-.013,1.247,1.247,0,0,0,.859-.666A32.277,32.277,0,0,0-25.978,2382.6Zm3.685,4.507a43.52,43.52,0,0,1-6.5,19.04l18.667-11.1Zm-25.954.016-12.138,7.932,18.668,11.088A43.724,43.724,0,0,1-48.247,2387.128ZM-69.41,2366.21a2.659,2.659,0,0,0,.106-.65c-.7-4.182-1.394-8.366-2.138-12.54a.994.994,0,0,0-.731-.591c-1.363-.059-2.731-.027-4.137-.027-.755,4.38-1.484,8.64-2.226,12.9-.136.78.268.924.92.915,1.5-.02,3-.006,4.5-.006Zm40.723,31.26H-41.835c1.528,4.005,4.169,7.456,6.581,11.256C-32.84,2404.883-30.193,2401.455-28.687,2397.47Zm-28.617-52v5.961c.81,0,1.517.053,2.213-.012a2.012,2.012,0,0,0,2.042-1.835c.119-1.345.028-2.709.028-4.114Zm44.12,5.954v-5.933H-17.51c0,1.379-.073,2.7.022,4.014a2.014,2.014,0,0,0,1.976,1.9A20.976,20.976,0,0,0-13.185,2351.423Zm-58.691-6.165h-4.081v3.314h4.081Z" transform="translate(86.024 -2312.294)" fill="#eb4e4a"/>
</svg>
