<svg xmlns="http://www.w3.org/2000/svg" width="17.88" height="17.878" viewBox="0 0 17.88 17.878">
  <path id="Icon_awesome-instagram" data-name="Icon awesome-instagram" d="M8.937,6.593a4.576,4.576,0,1,0,3.244,1.34A4.584,4.584,0,0,0,8.937,6.593Zm0,7.563a2.98,2.98,0,1,1,2.98-2.98,2.98,2.98,0,0,1-2.98,2.98Zm5.84-7.751a1.067,1.067,0,1,1-.313-.756,1.069,1.069,0,0,1,.313.756ZM17.813,7.49a5.291,5.291,0,0,0-1.444-3.746A5.325,5.325,0,0,0,12.623,2.3c-1.476-.084-5.9-.084-7.376,0A5.318,5.318,0,0,0,1.5,3.741,5.308,5.308,0,0,0,.058,7.486c-.084,1.476-.084,5.9,0,7.376A5.291,5.291,0,0,0,1.5,18.608a5.332,5.332,0,0,0,3.746,1.444c1.476.084,5.9.084,7.376,0a5.291,5.291,0,0,0,3.746-1.444,5.325,5.325,0,0,0,1.444-3.746c.084-1.476.084-5.9,0-7.372Zm-1.907,8.956a3.017,3.017,0,0,1-1.7,1.7c-1.177.467-3.969.359-5.27.359s-4.1.1-5.27-.359a3.017,3.017,0,0,1-1.7-1.7c-.467-1.177-.359-3.969-.359-5.27s-.1-4.1.359-5.27a3.017,3.017,0,0,1,1.7-1.7c1.177-.467,3.969-.359,5.27-.359s4.1-.1,5.27.359a3.017,3.017,0,0,1,1.7,1.7c.467,1.177.359,3.969.359,5.27S16.373,15.273,15.906,16.446Z" transform="translate(0.005 -2.237)" fill="#fff"/>
</svg>
