<svg xmlns="http://www.w3.org/2000/svg" width="118.066" height="79.057" viewBox="0 0 118.066 79.057">
  <g id="Group_739" data-name="Group 739" transform="translate(198.714 -2557.814)">
    <path id="Path_345" data-name="Path 345" d="M-198.714,2582.575c.219-1.082.417-2.169.659-3.246a27.474,27.474,0,0,1,26.559-21.473c7.228-.044,14.455-.012,21.683-.005a2.322,2.322,0,0,1,2.553,1.688,2.28,2.28,0,0,1-2.049,2.881,16.451,16.451,0,0,1-1.958.04c-6.651,0-13.3-.013-19.953,0a22.821,22.821,0,0,0-22.868,23.546c.3,11.457,9.9,21.365,21.348,21.7,8.067.237,16.145.071,24.219.082a5.1,5.1,0,0,0,.561-.073c-.1-.7-.213-1.365-.284-2.033a2.3,2.3,0,0,1,2.821-2.666q13.164,2.289,26.325,4.6a4.4,4.4,0,0,0,.8.119c4.684-.073,9.421.268,14.04-.319,11.68-1.485,20.4-13.185,18.9-24.829a22.584,22.584,0,0,0-22.858-20.126q-9.919-.014-19.838,0c-.346,0-.694.015-1.038-.01a2.352,2.352,0,0,1-2.386-2.433,2.291,2.291,0,0,1,2.5-2.164c7.458,0,14.919-.108,22.375.043,12.314.251,23.494,10.044,25.55,22.188a27.324,27.324,0,0,1-22.093,31.851,53.2,53.2,0,0,1-10,.434,9.556,9.556,0,0,0-5.445,1.39c-1.583,1-3.279,1.824-5.024,2.779.323.35.564.63.825.89q3.748,3.754,7.5,7.507c1.425,1.435,1.439,2.567.045,3.972q-3.494,3.52-7.017,7.01a2.375,2.375,0,0,1-3.815-.012c-2.539-2.517-5.059-5.054-7.589-7.58-.263-.263-.544-.508-.908-.847-1.4,2.528-2.738,4.98-4.121,7.407a3.615,3.615,0,0,1-1.1,1.277c-1.454.914-3.111.015-3.459-1.869-.517-2.794-.976-5.6-1.466-8.4-.78-4.459-1.565-8.917-2.367-13.482h-1.42c-7.958-.01-15.919.118-23.873-.062a27.158,27.158,0,0,1-26.116-23.937,5.2,5.2,0,0,0-.209-.764Zm58.861,44.407.248.023c.722-1.3,1.44-2.61,2.167-3.911,1.191-2.132,2.7-2.361,4.416-.651q4.01,3.981,8,7.987c.284.284.585.552.83.783l4.322-4.292c-.269-.282-.551-.589-.845-.883-2.717-2.72-5.449-5.425-8.149-8.162-1.423-1.442-1.158-3.078.612-4.065,1.33-.742,2.669-1.468,4.3-2.364l-19.206-3.357Z" fill="#eb4e4a"/>
    <path id="Path_346" data-name="Path 346" d="M62.735,2623.312c0-.738,0-1.181,0-1.624-.038-2.922-.105-5.843-.107-8.766a2.3,2.3,0,0,1,2.286-2.507,2.248,2.248,0,0,1,2.306,2.462q.117,8.42.187,16.84a2.659,2.659,0,0,1-1.814,2.882c-1.2.368-2.155-.049-3.1-1.4q-3.385-4.878-6.751-9.768c-.208-.3-.439-.587-.819-1.094-.029.633-.06,1-.061,1.362,0,2.845.015,5.691-.011,8.536-.015,1.687-.944,2.7-2.358,2.675-1.37-.027-2.237-1.015-2.241-2.658q-.022-8.594,0-17.187a2.31,2.31,0,0,1,1.7-2.552,2.415,2.415,0,0,1,2.725,1.247q3.589,5.227,7.2,10.437C62.094,2622.494,62.328,2622.777,62.735,2623.312Z" transform="translate(-172.225 -36.388)" fill="#eb4e4a"/>
    <path id="Path_347" data-name="Path 347" d="M-63.732,2632.915A11.3,11.3,0,0,1-75.166,2622,11.269,11.269,0,0,1-64.3,2610.419a11.275,11.275,0,0,1,11.68,11.126A11.3,11.3,0,0,1-63.732,2632.915Zm-.324-4.615a6.686,6.686,0,0,0,6.817-6.519,6.677,6.677,0,0,0-6.34-6.75,6.645,6.645,0,0,0-6.976,6.445A6.659,6.659,0,0,0-64.056,2628.3Z" transform="translate(-85.466 -36.389)" fill="#eb4e4a"/>
    <path id="Path_348" data-name="Path 348" d="M-115.047,2620.134c0,2.306.054,4.614-.014,6.918a5.707,5.707,0,0,1-3.613,5.434c-2.323.987-4.449.33-6.312-1.244a2.262,2.262,0,0,1-.493-3.27c.83-1.082,2.08-1.157,3.383-.345.5.313,1.389.678,1.709.456a2.41,2.41,0,0,0,.707-1.758c.058-4.189.03-8.379.031-12.569,0-.346-.009-.693.015-1.037a2.258,2.258,0,0,1,2.234-2.3,2.249,2.249,0,0,1,2.319,2.225c.085,1.186.04,2.382.045,3.573,0,1.307,0,2.614,0,3.921Z" transform="translate(-50.32 -36.388)" fill="#eb4e4a"/>
    <path id="Path_349" data-name="Path 349" d="M15.276,2621.64c0-2.844-.008-5.687,0-8.531.006-1.714.865-2.7,2.3-2.693,1.408.009,2.3,1.038,2.3,2.729q.015,8.531,0,17.062c0,1.673-.924,2.708-2.335,2.7s-2.267-1.036-2.272-2.735C15.27,2627.327,15.276,2624.483,15.276,2621.64Z" transform="translate(-148.032 -36.388)" fill="#eb4e4a"/>
    <path id="Path_350" data-name="Path 350" d="M-10.567,2557.972a2.211,2.211,0,0,1,2.242,2.269,2.27,2.27,0,0,1-2.246,2.294,2.336,2.336,0,0,1-2.326-2.356A2.267,2.267,0,0,1-10.567,2557.972Z" transform="translate(-128.544 -0.109)" fill="#eb4e4a"/>
  </g>
</svg>
