<svg xmlns="http://www.w3.org/2000/svg" width="42.408" height="20.54" viewBox="0 0 42.408 20.54">
  <path id="Path_326" data-name="Path 326" d="M-262.143,2444.766a1.891,1.891,0,0,1,2.066-1.336q17.038.026,34.076.011h.571c-.18-.188-.3-.315-.418-.437q-2.669-2.659-5.34-5.317a1.61,1.61,0,0,1-.447-1.672,1.566,1.566,0,0,1,1.242-1.148,1.641,1.641,0,0,1,1.578.512q2.42,2.411,4.844,4.817,1.805,1.8,3.608,3.594a1.675,1.675,0,0,1,0,2.612q-4.209,4.193-8.425,8.38a1.654,1.654,0,0,1-2.431.1,1.667,1.667,0,0,1,.116-2.461q2.638-2.632,5.282-5.258c.107-.107.231-.2.348-.294l-.034-.115h-.454q-17.059,0-34.117.011a1.893,1.893,0,0,1-2.067-1.336Z" transform="translate(262.143 -2434.827)" fill="#fff"/>
</svg>
