<svg xmlns="http://www.w3.org/2000/svg" width="16.99" height="12.742" viewBox="0 0 16.99 12.742">
  <path id="Icon_awesome-envelope" data-name="Icon awesome-envelope" d="M16.668,8.708a.2.2,0,0,1,.322.156V15.65a1.593,1.593,0,0,1-1.59,1.592H1.593A1.593,1.593,0,0,1,0,15.65V8.867a.2.2,0,0,1,.322-.156c.743.577,1.729,1.311,5.114,3.77.7.511,1.882,1.586,3.06,1.58,1.185.01,2.389-1.088,3.063-1.58C14.943,10.022,15.925,9.285,16.668,8.708ZM8.495,12.995c.77.013,1.878-.969,2.436-1.374,4.4-3.2,4.739-3.474,5.754-4.271a.794.794,0,0,0,.3-.627v-.63A1.593,1.593,0,0,0,15.4,4.5H1.593A1.593,1.593,0,0,0,0,6.093v.63a.8.8,0,0,0,.305.627c1.015.793,1.351,1.075,5.754,4.271C6.617,12.026,7.725,13.008,8.495,12.995Z" transform="translate(0 -4.5)" fill="#fff"/>
</svg>
