<svg xmlns="http://www.w3.org/2000/svg" width="132.88" height="20.538" viewBox="0 0 132.88 20.538">
  <path id="Path_326" data-name="Path 326" d="M-116.779,2473.331a1.89,1.89,0,0,1,2.066-1.336l7.149.008c8.776.007,108.324,0,117.4,0h.571c-.18-.188-.3-.315-.418-.437l-5.34-5.317a1.608,1.608,0,0,1-.447-1.672,1.567,1.567,0,0,1,1.242-1.148,1.644,1.644,0,0,1,1.578.512q2.419,2.411,4.844,4.817,1.8,1.8,3.608,3.594a1.676,1.676,0,0,1,.257,2.355,1.653,1.653,0,0,1-.257.257q-4.209,4.194-8.425,8.38a1.653,1.653,0,0,1-2.331.192c-.035-.029-.068-.06-.1-.092a1.666,1.666,0,0,1,0-2.357,1.471,1.471,0,0,1,.114-.1q2.637-2.632,5.282-5.258a4.192,4.192,0,0,1,.348-.294l-.034-.115H9.875c-11.373,0-113.217,0-124.589.011a1.892,1.892,0,0,1-2.067-1.336Z" transform="translate(116.781 -2463.391)" fill="#eb4e4a"/>
</svg>
