<svg xmlns="http://www.w3.org/2000/svg" width="19.916" height="16.173" viewBox="0 0 19.916 16.173">
  <path id="Icon_awesome-twitter" data-name="Icon awesome-twitter" d="M17.868,7.412c.013.177.013.354.013.531A11.533,11.533,0,0,1,6.268,19.556,11.534,11.534,0,0,1,0,17.723a8.443,8.443,0,0,0,.986.051A8.174,8.174,0,0,0,6.053,16.03,4.089,4.089,0,0,1,2.237,13.2a5.147,5.147,0,0,0,.771.063,4.317,4.317,0,0,0,1.074-.139A4.082,4.082,0,0,1,.809,9.118V9.067a4.111,4.111,0,0,0,1.845.518A4.088,4.088,0,0,1,1.39,4.126,11.6,11.6,0,0,0,9.806,8.4a4.608,4.608,0,0,1-.1-.935,4.086,4.086,0,0,1,7.063-2.8,8.036,8.036,0,0,0,2.591-.986,4.071,4.071,0,0,1-1.794,2.249,8.182,8.182,0,0,0,2.35-.632,8.774,8.774,0,0,1-2.047,2.11Z" transform="translate(0 -3.383)" fill="#fff"/>
</svg>
